<?xml version="1.0" encoding="UTF-8"?>
<!DOCTYPE svg PUBLIC "-//W3C//DTD SVG 1.1//EN" "http://www.w3.org/Graphics/SVG/1.1/DTD/svg11.dtd">
<svg xmlns="http://www.w3.org/2000/svg" xml:space="preserve" width="21.9163mm" height="23.7655mm" version="1.1" style="shape-rendering:geometricPrecision; text-rendering:geometricPrecision; image-rendering:optimizeQuality; fill-rule:evenodd; clip-rule:evenodd"
viewBox="0 0 206.69 224.13"
 xmlns:xlink="http://www.w3.org/1999/xlink">
 <defs>
  <style type="text/css">
   <![CDATA[
    .str0 {stroke:currentColor;stroke-width:8.98;stroke-linecap:round;stroke-miterlimit:22.9256}
    .fil1 {fill:none;fill-rule:nonzero}
    .fil2 {fill:currentColor}
    .fil0 {fill:currentColor;fill-rule:nonzero}
   ]]>
  </style>
 </defs>
   <path class="fil0" d="M72.03 56.38c2.44,0.45 4.78,-1.17 5.22,-3.61 0.45,-2.44 -1.17,-4.78 -3.61,-5.22l-1.61 8.84zm-56.84 10.16l3.89 2.24 0 0 -3.89 -2.24zm0.81 43.32c1.23,2.15 3.98,2.9 6.13,1.67 2.15,-1.23 2.9,-3.98 1.67,-6.13l-7.8 4.46zm21.84 14.5c-1.67,-1.84 -4.51,-1.97 -6.34,-0.3 -1.84,1.67 -1.97,4.51 -0.3,6.35l6.65 -6.04zm40.06 37.32l-2.25 3.89 2.25 -3.89zm107.72 19.5c2.05,-1.4 2.58,-4.19 1.18,-6.24 -1.4,-2.05 -4.19,-2.58 -6.24,-1.18l5.07 7.42zm-111.98 -133.63c-13.9,-2.53 -26.84,-2.66 -37.6,-0.06 -10.78,2.6 -19.69,8.03 -24.75,16.81l7.78 4.49c3.48,-6.04 9.91,-10.35 19.07,-12.57 9.19,-2.22 20.8,-2.22 33.88,0.16l1.61 -8.84zm-62.34 16.76c-7.52,13.04 -4.44,29.6 4.7,45.56l7.8 -4.46c-8.5,-14.85 -9.87,-27.67 -4.71,-36.61l-7.78 -4.49zm19.9 66.1c11.5,12.66 26.67,24.87 44.46,35.17l4.5 -7.78c-17.07,-9.87 -31.49,-21.52 -42.31,-33.43l-6.65 6.04zm44.46 35.17c21.2,12.26 42.91,19.92 62.1,22.71 19.02,2.76 36.28,0.82 47.87,-7.1l-5.07 -7.42c-8.9,6.07 -23.46,8.25 -41.52,5.63 -17.9,-2.6 -38.53,-9.82 -58.89,-21.6l-4.5 7.78zm131.03 4.11c0,-8.67 -7.02,-15.71 -15.69,-15.71l0 8.98c3.7,0 6.71,3 6.71,6.72l8.98 0zm-15.69 -15.71c-8.67,0 -15.69,7.04 -15.69,15.71l8.98 0c0,-3.72 3.01,-6.72 6.71,-6.72l0 -8.98zm-15.69 15.71c0,8.67 7.02,15.71 15.69,15.71l0 -8.98c-3.7,0 -6.71,-3 -6.71,-6.73l-8.98 0zm15.69 15.71c8.67,0 15.69,-7.04 15.69,-15.71l-8.98 0c0,3.72 -3.01,6.73 -6.71,6.73l0 8.98z"/>
   <path class="fil0" d="M172.07 120.95c-1.6,1.89 -1.36,4.73 0.53,6.33 1.89,1.6 4.73,1.36 6.33,-0.53l-6.86 -5.8zm19.54 -54.26l-3.89 2.24 3.89 -2.24zm-36.95 -20.95c-2.48,-0.03 -4.52,1.95 -4.55,4.43 -0.03,2.48 1.95,4.52 4.43,4.55l0.12 -8.98zm-23.87 11.58c2.43,-0.52 3.97,-2.91 3.45,-5.33 -0.52,-2.42 -2.91,-3.97 -5.33,-3.45l1.88 8.78zm-52.79 16.2l2.25 3.89 -2.25 -3.89zm-70.45 86.16c0.36,2.45 2.64,4.15 5.1,3.79 2.45,-0.36 4.15,-2.64 3.79,-5.1l-8.89 1.3zm171.39 -32.93c9.1,-10.77 15.64,-21.9 18.75,-32.51 3.12,-10.62 2.87,-21.04 -2.19,-29.8l-7.78 4.49c3.47,6.03 4,13.74 1.35,22.78 -2.66,9.06 -8.43,19.11 -16.99,29.24l6.86 5.8zm16.57 -62.3c-7.4,-12.83 -22.88,-18.47 -40.84,-18.7l-0.12 8.98c16.65,0.22 28.11,5.41 33.18,14.21l7.78 -4.49zm-66.6 -15.91c-16.84,3.61 -35.18,10.7 -53.16,21.1l4.5 7.78c17.25,-9.97 34.71,-16.69 50.54,-20.09l-1.88 -8.78zm-53.16 21.1c-21.82,12.62 -39.71,28.15 -51.73,43.86 -11.91,15.56 -18.55,31.99 -16.47,46.19l8.89 -1.3c-1.57,-10.68 3.4,-24.64 14.71,-39.43 11.2,-14.64 28.13,-29.42 49.1,-41.54l-4.5 -7.78z"/>
   <path class="fil0" d="M66.26 175.47c-0.84,-2.34 -3.41,-3.55 -5.74,-2.72 -2.34,0.84 -3.55,3.41 -2.72,5.74l8.46 -3.02zm73.56 22.95c1.28,-2.13 0.59,-4.89 -1.54,-6.16 -2.13,-1.28 -4.89,-0.59 -6.16,1.54l7.7 4.62zm2.51 -28.06c-0.74,2.37 0.58,4.89 2.95,5.63 2.37,0.74 4.89,-0.58 5.63,-2.95l-8.57 -2.68zm12.01 -52.68l-4.49 0 4.49 0zm-38 -103.64c-2.27,-1.01 -4.92,0.01 -5.93,2.28 -1.01,2.27 0.01,4.92 2.28,5.93l3.65 -8.21zm-58.55 164.46c4.76,13.31 11.12,24.58 18.74,32.6 7.63,8.03 16.78,13.04 26.9,13.04l0 -8.98c-6.95,0 -13.89,-3.41 -20.39,-10.25 -6.51,-6.85 -12.32,-16.91 -16.79,-29.43l-8.46 3.02zm45.64 45.64c14.69,0 27.22,-10.45 36.38,-25.71l-7.7 -4.62c-8.48,14.13 -18.63,21.35 -28.68,21.35l0 8.98zm47.47 -51.1c5.04,-16.14 7.93,-35.11 7.93,-55.36l-8.98 0c0,19.43 -2.77,37.49 -7.52,52.68l8.57 2.68zm7.93 -55.36c0,-24.83 -4.34,-47.77 -11.7,-65.92 -7.29,-17.98 -17.85,-31.97 -30.79,-37.73l-3.65 8.21c9.84,4.38 19.19,15.81 26.12,32.9 6.86,16.92 11.04,38.69 11.04,62.54l8.98 0z"/>
   <path class="fil1 str0" d="M202.2 169.67c0,-6.19 -5.01,-11.22 -11.2,-11.22 -6.18,0 -11.2,5.02 -11.2,11.22 0,6.2 5.01,11.22 11.2,11.22 6.19,0 11.2,-5.02 11.2,-11.22l0 0z"/>
   <path class="fil1 str0" d="M15.69 180.89c6.18,0 11.2,-5.02 11.2,-11.22 0,-6.19 -5.01,-11.22 -11.2,-11.22 -6.18,0 -11.2,5.02 -11.2,11.22 0,6.2 5.01,11.22 11.2,11.22l0 0 0 0z"/>
   <ellipse class="fil1 str0" cx="103.44" cy="15.71" rx="11.2" ry="11.22"/>
   <path class="fil2" d="M105.61 127.7c-5.53,1.2 -10.98,-2.32 -12.17,-7.86 -1.19,-5.54 2.32,-10.99 7.85,-12.19 5.53,-1.2 10.98,2.32 12.17,7.86 1.19,5.54 -2.32,10.99 -7.85,12.19z"/>
</svg>
