<?xml version="1.0" encoding="UTF-8"?>
<!DOCTYPE svg PUBLIC "-//W3C//DTD SVG 1.1//EN" "http://www.w3.org/Graphics/SVG/1.1/DTD/svg11.dtd">
<svg xmlns="http://www.w3.org/2000/svg" xml:space="preserve" width="7.9441mm" height="7.9213mm" version="1.1" style="shape-rendering:geometricPrecision; text-rendering:geometricPrecision; image-rendering:optimizeQuality; fill-rule:evenodd; clip-rule:evenodd"
viewBox="0 0 122.95 122.6"
 xmlns:xlink="http://www.w3.org/1999/xlink">
 <defs>
  <style type="text/css">
   <![CDATA[
    .fil1 {fill:#FF7557}
    .fil0 {fill:#FFD6CD;fill-rule:nonzero}
   ]]>
  </style>
 </defs>
   <polygon class="fil0" points="107.33,19.83 14.64,19.83 14.64,107.65 107.33,107.65 "/>
   <path class="fil1" d="M34.58 34.48l-34.58 0 0 -34.48 34.58 0 0 34.48zm88.37 0l-34.58 0 0 -34.48 34.58 0 0 34.48zm-122.95 88.12l34.58 0 0 -34.48 -34.58 0 0 34.48zm122.95 0l-34.58 0 0 -34.48 34.58 0 0 34.48zm-111.42 -88.12l11.53 0 0 53.63 -11.53 0 0 -53.63zm99.9 0l-11.53 0 0 53.63 11.53 0 0 -53.63zm-76.84 -22.99l53.79 0 0 11.49 -53.79 0 0 -11.49zm53.79 88.11l-53.79 0 0 11.49 53.79 0 0 -11.49z"/>
</svg>
