<?xml version="1.0" encoding="UTF-8"?>
<!DOCTYPE svg PUBLIC "-//W3C//DTD SVG 1.1//EN" "http://www.w3.org/Graphics/SVG/1.1/DTD/svg11.dtd">
<svg xmlns="http://www.w3.org/2000/svg" xml:space="preserve" width="335.492mm" height="274.902mm" version="1.1" style="shape-rendering:geometricPrecision; text-rendering:geometricPrecision; image-rendering:optimizeQuality; fill-rule:evenodd; clip-rule:evenodd"
viewBox="0 0 33496.32 27446.92"
 xmlns:xlink="http://www.w3.org/1999/xlink">
 <defs>
  <style type="text/css">
   <![CDATA[
    .str4 {stroke:#EAC2A7;stroke-width:52.84;stroke-linecap:round;stroke-miterlimit:22.9256;stroke-opacity:0.239216}
    .str2 {stroke:#EFC5A9;stroke-width:52.84;stroke-linecap:round;stroke-miterlimit:22.9256;stroke-opacity:0.254902}
    .str3 {stroke:#EAC2A7;stroke-width:52.84;stroke-linecap:round;stroke-miterlimit:22.9256;stroke-opacity:0.274510}
    .str0 {stroke:#EFBCA6;stroke-width:52.84;stroke-linecap:round;stroke-miterlimit:22.9256;stroke-opacity:0.333333}
    .str1 {stroke:#EFC5A9;stroke-width:52.84;stroke-linecap:round;stroke-miterlimit:22.9256;stroke-opacity:0.333333}
    .fil12 {fill:none;fill-rule:nonzero}
    .fil6 {fill:none;fill-rule:nonzero}
    .fil11 {fill:none;fill-rule:nonzero}
    .fil5 {fill:none;fill-rule:nonzero}
    .fil13 {fill:#F0D0B6;fill-rule:nonzero;fill-opacity:0.258824}
    .fil9 {fill:#DFC0A6;fill-rule:nonzero;fill-opacity:0.333333}
    .fil7 {fill:#F0D0B6;fill-rule:nonzero;fill-opacity:0.333333}
    .fil14 {fill:#D7B79D;fill-rule:nonzero;fill-opacity:0.360784}
    .fil15 {fill:#D8B79D;fill-rule:nonzero;fill-opacity:0.376471}
    .fil4 {fill:#F8DABF;fill-rule:nonzero;fill-opacity:0.388235}
    .fil8 {fill:#DFC0A6;fill-rule:nonzero;fill-opacity:0.415686}
    .fil10 {fill:#F9DFC7;fill-rule:nonzero;fill-opacity:0.619608}
    .fil3 {fill:url(#id10);fill-rule:nonzero}
    .fil1 {fill:url(#id11);fill-rule:nonzero}
    .fil2 {fill:url(#id12);fill-rule:nonzero}
    .fil0 {fill:url(#id13);fill-rule:nonzero}
   ]]>
  </style>
     <mask id="id0">
  <linearGradient id="id1" gradientUnits="userSpaceOnUse" x1="3229.43" y1="22348.5" x2="3229.43" y2="25946.7">
   <stop offset="0" style="stop-opacity:0.858824; stop-color:white"/>
   <stop offset="1" style="stop-opacity:0.521569; stop-color:white"/>
  </linearGradient>
      <rect style="fill:url(#id1)" x="3229.18" y="22348.25" width="889.06" height="3598.7"/>
     </mask>
     <mask id="id2">
  <linearGradient id="id3" gradientUnits="userSpaceOnUse" x1="4004.96" y1="23246.66" x2="4004.96" y2="26161.75">
   <stop offset="0" style="stop-opacity:0.858824; stop-color:white"/>
   <stop offset="1" style="stop-opacity:0.521569; stop-color:white"/>
  </linearGradient>
      <rect style="fill:url(#id3)" x="4004.71" y="23246.41" width="1696.86" height="2915.59"/>
     </mask>
     <mask id="id4">
  <linearGradient id="id5" gradientUnits="userSpaceOnUse" x1="1805.24" y1="23933.5" x2="1805.24" y2="26235.78">
   <stop offset="0" style="stop-opacity:0.819608; stop-color:white"/>
   <stop offset="1" style="stop-opacity:0.458824; stop-color:white"/>
  </linearGradient>
      <rect style="fill:url(#id5)" x="1804.99" y="23933.25" width="1449.81" height="2302.78"/>
     </mask>
     <mask id="id6">
  <linearGradient id="id7" gradientUnits="userSpaceOnUse" x1="27218.96" y1="23880.66" x2="27218.96" y2="26222.71">
   <stop offset="0" style="stop-opacity:0.819608; stop-color:white"/>
   <stop offset="1" style="stop-opacity:0.458824; stop-color:white"/>
  </linearGradient>
      <rect style="fill:url(#id7)" x="27218.71" y="23880.41" width="715.81" height="2342.54"/>
     </mask>
     <mask id="id8">
  <linearGradient id="id9" gradientUnits="userSpaceOnUse" x1="27989.92" y1="23590.08" x2="27989.92" y2="26188.17">
   <stop offset="0" style="stop-opacity:0.819608; stop-color:white"/>
   <stop offset="1" style="stop-opacity:0.458824; stop-color:white"/>
  </linearGradient>
      <rect style="fill:url(#id9)" x="27989.67" y="23589.83" width="1926.49" height="2598.59"/>
     </mask>
  <linearGradient id="id10" gradientUnits="objectBoundingBox" x1="0%" y1="0%" x2="0%" y2="100%">
   <stop offset="0" style="stop-opacity:1; stop-color:#FCE7D0"/>
   <stop offset="1" style="stop-opacity:1; stop-color:#EFCDAE"/>
  </linearGradient>
  <linearGradient id="id11" gradientUnits="userSpaceOnUse" x1="-0" y1="26416.66" x2="33496.31" y2="26416.66">
   <stop offset="0" style="stop-opacity:0.419608; stop-color:#F5DCC4"/>
   <stop offset="0.501961" style="stop-opacity:0.380392; stop-color:#F4E3D4"/>
   <stop offset="1" style="stop-opacity:0.419608; stop-color:#F5DCC4"/>
  </linearGradient>
  <linearGradient id="id12" gradientUnits="objectBoundingBox" x1="0%" y1="0%" x2="0%" y2="100%">
   <stop offset="0" style="stop-opacity:1; stop-color:#FFD1BD"/>
   <stop offset="1" style="stop-opacity:1; stop-color:#F3BCA4"/>
  </linearGradient>
  <radialGradient id="id13" gradientUnits="userSpaceOnUse" gradientTransform="matrix(2.46423E-014 0.922705 -9.66643E-001 2.56011E-014 28009 -3804)" cx="16748.16" cy="11649.74" r="12020.64" fx="16748.16" fy="11649.74">
   <stop offset="0" style="stop-opacity:0.619608; stop-color:#F8E8D6"/>
   <stop offset="0.580392" style="stop-opacity:0.478431; stop-color:#F5DEC6"/>
   <stop offset="1" style="stop-opacity:0.341176; stop-color:#F4D5B8"/>
  </radialGradient>
 </defs>
  <ellipse class="fil0" cx="16748.16" cy="11649.74" rx="12521.5" ry="11649.74"/>
  <ellipse class="fil1" cx="16748.16" cy="26522.33" rx="16748.16" ry="924.58" filter="url(#softBlur)"/>
  <g id="_105553147256512">
   <g>
    <path class="fil2" style="mask:url(#id0)" d="M3487 25729.83c-317,-1109.5 -396.25,-2562.42 79.24,-3381.34 607.58,845.34 739.67,2351.08 264.17,3487 -79.25,184.92 -264.17,132.08 -343.42,-105.66z"/>
   </g>
   <g>
    <path class="fil2" style="mask:url(#id2)" d="M4015.33 25967.58c211.34,-1162.33 845.34,-2324.66 1611.42,-2720.92 317,977.42 -422.66,2324.67 -1347.24,2879.42 -158.5,79.25 -317,26.42 -264.17,-158.5z"/>
   </g>
   <g>
    <path class="fil3" style="mask:url(#id4)" d="M2826.58 26020.42c-739.66,-739.66 -1241.58,-1611.42 -924.58,-2086.92 977.42,317 1585,1347.25 1268,2219 -52.84,184.92 -211.34,26.42 -343.42,-132.08z"/>
   </g>
   <path class="fil4" d="M3381.33 26020.42c-634,-607.58 -924.58,-1479.34 -607.58,-1954.84 739.67,528.34 1056.67,1400.08 818.92,2086.92 -52.84,132.08 -132.08,0 -211.34,-132.08z"/>
   <path class="fil5 str0" d="M3724.74 26099.66c26.42,-951 -52.83,-2113.33 -211.33,-3619.08"/>
   <path class="fil5 str1" d="M4015.33 26099.66c501.92,-951 1003.84,-1902 1558.59,-2800.16"/>
   <path class="fil6 str2" d="M3117.16 26178.92c-422.66,-686.84 -818.92,-1479.34 -1188.74,-2192.58"/>
   <path class="fil7" d="M4675.74 26231.75c0,-189.66 -496.74,-343.42 -1109.5,-343.42 -612.76,0 -1109.5,153.76 -1109.5,343.42 0,189.66 496.74,343.42 1109.5,343.42 612.76,0 1109.5,-153.76 1109.5,-343.42z"/>
   <path class="fil8" d="M5494.65 26865.75c0,-102.13 -236.54,-184.92 -528.33,-184.92 -291.79,0 -528.33,82.79 -528.33,184.92 0,102.13 236.54,184.92 528.33,184.92 291.79,0 528.33,-82.79 528.33,-184.92z"/>
   <path class="fil9" d="M7396.66 26707.25c0,-102.13 -224.72,-184.92 -501.92,-184.92 -277.2,0 -501.92,82.79 -501.92,184.92 0,102.13 224.72,184.92 501.92,184.92 277.2,0 501.92,-82.79 501.92,-184.92z"/>
  </g>
  <g id="_105553147264768">
   <g>
    <path class="fil3" style="mask:url(#id6)" d="M27420.5 26020.42c-237.75,-871.75 -317,-1769.92 52.84,-2139.75 528.33,660.42 607.58,1532.17 211.33,2245.42 -105.66,184.92 -211.33,79.25 -264.16,-105.66z"/>
   </g>
   <g>
    <path class="fil3" style="mask:url(#id8)" d="M28001.66 25994c343.42,-1109.5 1083.08,-2086.92 1875.58,-2403.92 237.75,871.75 -660.41,2086.92 -1611.41,2562.42 -184.92,79.25 -317,26.42 -264.17,-158.5z"/>
   </g>
   <path class="fil10" d="M28530 26099.66c634,-713.24 1611.42,-1400.08 2430.34,-1347.24 -264.17,766.08 -1320.84,1320.84 -2219,1505.74 -132.09,26.42 -264.17,-52.83 -211.34,-158.5z"/>
   <path class="fil11 str3" d="M27631.83 26099.66c-52.84,-739.66 -79.25,-1426.5 -158.5,-2166.16"/>
   <path class="fil11 str3" d="M28186.58 26126.08c581.16,-898.16 1135.92,-1769.92 1664.25,-2483.16"/>
   <path class="fil12 str4" d="M28530 26178.92c792.5,-554.75 1611.42,-1056.66 2403.92,-1400.08"/>
   <path class="fil13" d="M29058.33 26363.83c0,-175.07 -425.78,-317 -951,-317 -525.22,0 -951,141.93 -951,317 0,175.07 425.78,317 951,317 525.22,0 951,-141.93 951,-317z"/>
   <path class="fil14" d="M26152.5 26733.66c0,-72.94 -130.09,-132.08 -290.58,-132.08 -160.49,0 -290.58,59.14 -290.58,132.08 0,72.94 130.09,132.08 290.58,132.08 160.49,0 290.58,-59.14 290.58,-132.08z"/>
   <path class="fil15" d="M27737.5 26865.75c0,-116.72 -260.2,-211.33 -581.16,-211.33 -320.96,0 -581.16,94.61 -581.16,211.33 0,116.72 260.2,211.33 581.16,211.33 320.96,0 581.16,-94.61 581.16,-211.33z"/>
  </g>
</svg>
