<?xml version="1.0" encoding="UTF-8"?>
<!DOCTYPE svg PUBLIC "-//W3C//DTD SVG 1.1//EN" "http://www.w3.org/Graphics/SVG/1.1/DTD/svg11.dtd">
<svg xmlns="http://www.w3.org/2000/svg" xml:space="preserve" width="91.4529mm" height="66.283mm" version="1.1" style="shape-rendering:geometricPrecision; text-rendering:geometricPrecision; image-rendering:optimizeQuality; fill-rule:evenodd; clip-rule:evenodd"
viewBox="0 0 10584.41 7671.34"
 xmlns:xlink="http://www.w3.org/1999/xlink">
 <defs>
  <style type="text/css">
   <![CDATA[
    .fil3 {fill:black;fill-rule:nonzero}
    .fil1 {fill:#A3A3A3;fill-rule:nonzero}
    .fil2 {fill:#F9C2CF;fill-rule:nonzero}
    .fil0 {fill:white;fill-rule:nonzero}
   ]]>
  </style>
 </defs>
  <path class="fil0" d="M809.68 1281.08c-122.5,-371.13 -37.06,-816.07 346.03,-1001.33 160.46,-77.17 306.21,-88.19 463.92,5.21 214.36,126.78 128,175.16 353.06,19.29 304.07,-210.06 572.63,-74.72 861.09,72.58 356.44,182.2 604.17,221.39 956.02,-10.72 262.43,-173.31 693.9,-428.71 1019.71,-352.15 374.81,87.28 520.57,557.02 347.56,877.32 -157.4,288.76 -464.53,559.77 -572.01,878.84 -128.62,381.86 470.65,367.46 714.1,485.35 385.36,182.85 750.58,411.53 1083.53,678.57 281.11,230.28 451.37,562.22 750.85,781.47 322.14,235.48 829.24,189.24 1208.96,281.11 459.1,107.92 924.82,188.86 1393.38,239.98 331.02,38.59 681.34,91.87 790.65,453.81 127.69,424.12 52.06,628.05 -306.21,861.39 -844.25,551.19 -1834.25,732.17 -2838.65,730.94 -311.42,0 -639.69,-70.74 -861.39,178.22 -183.73,206.08 -293.97,441.26 -469.44,654.38 -180.36,218.64 -381.25,480.15 -688.99,474.03 -1.9,-0.19 -4.13,-0.19 -6.12,-0.19 -156.19,0 -306.85,-58.31 -422.46,-163.25 -106.26,-101.98 -143.32,-309.9 -260.9,-364.71 -153.11,511.08 -1416.88,620.4 -1596.31,107.79 -97.99,371.14 -631.42,506.18 -979.9,502.2 -257.84,-3.07 -230.28,-78.09 -406.66,-188.63 -167.51,-105.03 -297.34,10.1 -470.05,46.24 -306.21,64 -721.14,-1.53 -960,-229.67 -282.34,-269.78 -3.07,-667.87 40.73,-995.83 133.2,-994.29 -189.55,-1934.08 -285.71,-2897.75 -75.33,-756.67 144.23,-1430.65 658.37,-1996.54 40.11,-44.1 84.82,-84.21 117.29,-127.69l19.58 -0.3z"/>
  <path class="fil1" d="M1650.25 6213.66c27.68,-15.65 53.89,-34.01 78.11,-54.55 55.43,-38.59 97.99,-18.07 104.12,50.53 0.52,8.82 0.82,17.7 0.82,26.52 0,8.82 -0.3,17.7 -0.82,26.47 -0.22,1.56 -0.32,3.11 -0.32,4.68 0,13.36 7.44,25.62 19.29,31.78 16.84,7.96 25.42,-8.26 34.91,-18.07 67.06,-68.9 84.21,-211.9 47.78,-301.32 -58.49,-143 -163.82,-250.49 -259.68,-365.32 -22.35,-26.64 -312.35,-214.36 -361.03,-304.07 19.59,96.77 -12.24,196.29 11.94,286.32 44.4,165.66 -43.48,325.21 -8.26,489.95 3.68,17.15 -26.64,44.71 -1.84,61.25 24.8,16.54 41.64,-7.65 61.25,-22.35 81.46,-64 103.19,-61.25 131.99,32.76 25.39,87.28 77.14,83.91 141.75,55.43z"/>
  <path class="fil2" d="M6363.57 4908.56c-4.99,144.51 -17.89,289.38 -38.23,432.76 -5.82,43.18 147.6,250.18 288.15,-22.35 41.95,-105.96 110.24,-199.66 134.13,-314.79 44.4,-214.36 6.43,-418.61 -56.34,-621.32 -6,-13.19 -16.13,-23.98 -28.85,-30.72 -76.25,-46.24 -148.21,-98.61 -220.48,-150.35 -48.08,-34.61 -77.17,-97.99 -161.68,-106.87 34.42,154 58.99,312.2 71.9,469.56 9.57,114.72 14.17,228.94 11.41,344.07z"/>
  <path class="fil1" d="M1616.56 5397.28c11.69,2.4 22.37,8.28 30.64,16.84 91.87,109.94 183.73,219.25 273.15,331.33 133.2,168.42 153.11,379.09 209.76,576.61 8.88,30.62 19.29,61.25 45.32,68.9 33.99,11.94 48.69,-22.35 61.25,-47.46 22.35,-41.03 59.09,-54.2 79.93,-12.24 48.69,97.68 91.87,44.1 129.83,0 48.38,-56.65 87.58,-43.79 105.03,15.93 23.27,79 55.43,33.08 83.6,12.24 17.45,-13.17 25.11,-38.27 40.43,-55.43 35.83,-40.11 70.74,-49.3 101.05,7.65 7.05,13.17 7.65,38.27 38.59,26.33 19.59,-173.63 32.46,-349.4 42.87,-526.39 5.78,-67.89 9.12,-135.98 9.12,-204.08 0,-79.53 -4.47,-159.63 -12.56,-238.61 -5.51,-39.2 1.53,-74.72 43.79,-91.87 73.79,85.44 64,189.24 61.25,289.69 -0.84,4.55 -1.31,9.31 -1.31,14.04 0,35.48 25.28,65.97 60.15,72.52 35.45,10.72 71.95,18.59 108.72,23.54 61.25,10.42 109.94,-30.62 166.58,-30.62 164.75,5.21 331.02,23.89 493.63,-9.49 91.87,-18.68 179.14,6.12 265.8,-2.75 87.8,-9.2 177.17,-14.32 265.64,-14.32 88.47,0 177.84,5.12 265.7,14.44 48.33,6.33 97.45,9.7 146.44,9.7 67.69,0 135.53,-6.33 202.02,-18.7 83.6,-17.15 68.9,-49.6 28.48,-91.87 -52.97,-53.59 -116.06,-97.99 -167.51,-153.11 -198.43,-211.6 -296.11,-474.33 -367.46,-748.71 -3.94,-20.1 -5.96,-40.67 -5.96,-61.2 0,-20.53 2.03,-41.1 5.94,-61.24 3.15,-27.33 25.79,-48.27 53.27,-49.29 22.05,0 32.76,21.75 30.62,44.71 -6.12,149.44 61.25,280.19 109.32,414.62 59.38,165.94 161.09,313.87 294.85,428.73 81.21,71.06 151.94,153.86 209.78,244.99 159.54,248.65 244.98,529.15 342.35,809.33 28.54,-11.46 52.41,-32.2 67.68,-58.85 30.62,-45.62 69.82,-97.99 104.73,0 9.49,26.94 22.66,20.21 37.97,7.65 15.31,-12.56 30.62,-35.22 50.83,-11.03 41.03,50.53 79,53.59 120.04,0 6.47,-8.5 16.57,-13.51 27.28,-13.51 7.37,0 14.56,2.38 20.47,6.78 38.59,27.56 61.25,-5.51 69.21,-26.64 33.68,-85.74 84.52,-167.81 63.39,-267.94 -2.55,-9.83 -3.85,-19.98 -3.85,-30.14 0,-19.12 4.58,-37.98 13.33,-54.99 64.79,-121.48 112.68,-252.26 141.52,-387.03 47.16,-208.53 93.7,-416.77 93.7,-632.04 0,-116.67 -10.1,-233.34 -13.17,-349.4 -6.86,-155.8 -30.25,-310.94 -69.51,-461.78 -53.9,-220.78 -99.82,-448.61 -236.4,-638.77 -103.5,-144.53 -179.45,-311.12 -336.84,-414.62 -124.64,-82.98 -268.55,-135.65 -387.06,-221.7 -203.64,-147.6 -433.61,-187.71 -669.7,-223.23 -156.79,-23.58 -312.95,-52.97 -470.65,-66.44 -134.43,-11.63 -271.01,0 -406.05,-6.43 -104.42,-3.98 -193.84,50.22 -294.27,63.69 -78.49,15.51 -148.78,59.07 -197.54,122.46 -84.21,97.68 -153.11,207.92 -256,290.3 -26.64,21.43 -51.14,61.25 -86.05,21.13 -34.91,-40.11 -8.58,-77.77 28.78,-101.98 34.77,-18.31 65.98,-43.02 91.87,-72.59 83.49,-107.13 174.65,-211.3 269.53,-308.51 199.04,-207.01 421.36,-388.9 632.65,-581.82 10.72,-9.8 25.11,-20.21 18.07,-36.13 -7.05,-15.93 -23.27,-13.17 -41.34,-14.4 -114.22,-7.65 -224.76,22.66 -331.33,47.46 -159.54,37.05 -323.37,48.69 -481.07,94.31 -6.98,2.26 -14.17,3.32 -21.39,3.32 -32.41,0 -61.04,-21.17 -70.54,-52.14 -12.86,-43.18 29.1,-43.48 57.57,-58.49 104.12,-54.2 214.36,-98.61 313.26,-158.62 196.9,-120.04 398.09,-228.44 603.87,-334.7 160.77,-83.3 324.59,-164.44 448.3,-303.46 13.17,-14.7 44.71,-32.15 32.76,-46.85 -41.64,-49.92 -85.12,-122.48 -139.02,-132.9 -52.21,-11.11 -105.69,-16.85 -159.07,-16.85 -49.4,0 -98.79,4.81 -147.17,14.36 -341.75,70.43 -688.99,61.25 -1033.49,86.66 -176.68,13.17 -354.6,30.62 -530.06,38.89 -99.52,4.9 -188.01,145.76 -294.88,30.62 0,0 -5.21,1.53 -8.26,1.84 -81.14,10.72 -162.3,20.21 -242.83,32.76 -80.53,12.56 -142.39,34.61 -120.65,136.57 5.51,24.8 -9.8,42.57 -26.03,65.23 -46.85,64.62 -104.12,81.46 -178.52,81.14 -47.16,0 -103.8,-25.11 -141.16,21.13 -83.21,95.27 -154,201.98 -209.37,315.69 -82.68,188.63 -156.79,380.93 -231.19,572.94 -118.81,306.21 -117.29,627.44 -160.77,942.85 -5.1,49.54 -7.89,99.5 -7.89,149.29 0,78.62 6.64,157.75 19.39,235.14 26.64,196.9 38.89,398.09 110.24,583.96 118.5,306.21 232.72,617.95 454.13,875.47 79.05,89.95 131.11,203.26 262.47,237.55zm4423.03 -1361.44c61.25,9.19 70.12,65.53 91.87,106.87 -1.53,30.62 -15.93,51.75 -42.26,48.38 -57.57,-7.05 -86.05,-49.6 -97.07,-101.36 -1.69,-4.54 -2.56,-9.34 -2.56,-14.18 0,-22.49 18.24,-40.73 40.73,-40.73 3.02,0 6.03,0.34 8.97,1l0.31 0.02zm-173.33 7.04c16.54,19.29 32.76,38.27 22.66,66.44 -7.35,20.82 -1.53,53.9 -29.1,57.57 -0.49,0.01 -1,0.02 -1.5,0.02 -22.23,0 -41.93,-14.37 -48.71,-35.54 -29.1,-70.74 -115.13,-106.87 -120.96,-189.55 5.82,-19.29 -7.05,-41.34 18.68,-47.16 3.81,-1.26 7.79,-1.91 11.79,-1.91 13.99,0 26.83,7.84 33.23,20.29 25.1,54.82 76.25,86.06 113.61,129.84l0.3 0zm-310.2 -692.06c7.93,-13.74 22.6,-22.22 38.47,-22.22 4.83,0 9.63,0.79 14.2,2.33 82.68,17.77 205.48,169.33 204.86,255.7 0.97,3.82 1.48,7.79 1.48,11.75 0,19.17 -11.61,36.45 -29.36,43.68 -23.58,8.26 -40.11,-14.09 -48.08,-30.62 -41.58,-80.62 -100.57,-151.29 -172.38,-206.7 -10.18,-7.3 -16.23,-19.07 -16.23,-31.6 0,-7.97 2.45,-15.76 7.03,-22.3zm-229.35 217.72c-51.86,-47.89 -98.94,-101.26 -139.97,-158.65 -23.58,-33.68 2.14,-59.09 36.75,-63.08 51.75,3.07 172.71,150.97 167.19,197.82 -5.52,46.85 -48.97,37.7 -64.58,23.91l0.61 0zm-214.36 -626.21c3.07,-24.19 25.42,-18.68 41.64,-18.98 47.78,0 238.86,127.08 252.94,170.26 1.77,7.3 2.71,14.83 2.75,22.36 0,42.87 -20.21,57.57 -53.28,35.52 -76.86,-50.53 -148.51,-108.71 -234.56,-144.84 -25.11,-9.5 -13.78,-42.27 -11.02,-62.79l1.53 -1.53zm-91.87 484.14c-14.09,44.71 -54.51,32.46 -72.58,8.88 -44.1,-57.57 -98.61,-105.03 -143.32,-161.07 -20.82,-26.03 -30.62,-68.28 48.08,-70.12 45.03,-1.84 185.27,161.37 165.99,222.32l1.83 0zm-474.95 -640.61c11.94,-43.79 51.44,-6.74 68.28,-22.35 78.09,3.98 135.04,43.18 192.31,80.54 13.78,9.8 21.97,25.69 21.97,42.61 0,9.95 -2.85,19.71 -8.18,28.1 -13.17,28.48 -36.45,25.73 -66.14,18.07 -67.06,-16.84 -106.57,-87.89 -183.73,-88.19 -10.1,0.31 -30.01,-35.21 -24.5,-58.78zm-297.03 11.02c23.89,-10.42 38.89,-15.93 61.25,4.9 34.91,33.99 73.49,64 111.15,95.24 12.33,10.59 19.42,26.04 19.42,42.28 0,7.46 -1.5,14.85 -4.41,21.72 -6.12,19.91 -28.48,22.66 -43.48,25.73 -74.41,-23.89 -138.11,-55.73 -162.91,-131.37 -5.52,-18.68 -11.94,-44.71 20.21,-58.79l-1.23 0.3zm-197.52 244.98c-2.75,-22.96 13.47,-27.26 33.08,-30.62 37.36,-3.68 223.23,76.86 239.46,107.48 6.39,13.29 9.72,27.87 9.72,42.61 0,16.34 -4.09,32.44 -11.85,46.8 -79.14,-45.15 -163.15,-81.98 -250.12,-109.06 -32.85,-12.21 -15.69,-38.54 -19.06,-58.75l-1.23 1.53zm-336.84 -306.21c0.52,-0.01 1.18,-0.01 1.72,-0.01 88.05,0 175.9,13.12 260.13,38.61 13.04,5.67 21.49,18.58 21.49,32.82 0,3.92 -0.65,7.85 -1.92,11.56 -6.43,26.94 -26.03,33.99 -52.06,36.45 -44.4,4.28 -82.07,-35.83 -109.32,-21.75 -44.4,3.98 -75.02,-1.84 -95.54,10.42 -43.18,25.73 -57.88,0 -70.43,-30.62 -4.15,-7.82 -6.33,-16.56 -6.33,-25.43 0,-29.65 23.84,-53.81 53.48,-54.19l-1.23 2.14zm-56.65 453.2c5.13,-0.3 10.31,-0.49 15.45,-0.49 55.33,0 109.07,18.75 152.38,53.15 10.02,5.31 16.31,15.74 16.31,27.08 0,6.32 -1.96,12.48 -5.59,17.64 -13.78,29.1 -42.26,26.03 -90.03,24.19 -37.31,-10.87 -76,-17.19 -114.82,-18.71 -0.37,0.05 -0.74,0.06 -1.11,0.06 -19.44,0 -35.22,-15.77 -35.22,-35.22 0,-1.96 0.16,-3.91 0.49,-5.83 1.97,-33.42 28.74,-60.06 62.16,-61.87l-0.01 0.01zm-391.65 -367.46c61.25,-17.45 127.08,-26.33 183.73,18.68 39.81,32.15 14.4,45.01 -18.68,66.44 -63.69,41.64 -138.11,-38.27 -201.18,43.18 -6.74,-62.78 -22.96,-111.47 35.22,-128.31l0.91 0zm-267.03 272.84c51.14,-36.13 112.69,-35.22 173.01,-28.48 13.78,0 16.23,13.78 15.93,26.33 -1,24.06 -16.9,44.96 -39.8,52.37 -43.48,12.24 -89.72,12.56 -129.53,39.81 -12.24,8.26 -26.64,-7.05 -34.61,-19.29 -4.85,-8.21 -7.42,-17.58 -7.42,-27.13 0,-16.99 8.11,-32.97 21.82,-43l0.6 -0.61zm-581.81 -1806.69c22.35,-49.92 77.77,-10.42 109.01,-22.66 81.76,0 153.11,0 211.9,61.25 21.43,22.35 30.62,39.81 24.19,65.23 -6.02,19.11 -23.75,32.12 -43.79,32.12 -3.92,0 -7.82,-0.51 -11.62,-1.49 -11.56,-0.93 -23.36,-1.45 -35,-1.45 -45.83,0 -91.51,7.49 -134.95,21.98 -55.13,15.93 -79,-19.59 -108.1,-49.3 -14.14,-17.26 -21.87,-38.89 -21.87,-61.19 0,-15.24 3.62,-30.29 10.56,-43.85l-0.32 -0.62z"/>
  <path class="fil0" d="M1624.83 1403.58c73.79,346.33 67.06,587.94 220.18,918.66 124.64,269.17 316.63,624.39 617.04,734.92 361.34,132.9 512.31,-197.2 719.61,-423.5 207.31,-226.3 450.14,-410.33 663.57,-622.55 61.25,-61.25 113.31,-95.54 124.32,-175.47 -122.48,-11.33 -239.16,66.44 -364.4,78.7 -153.11,15 -301.93,-20.21 -441.26,42.26 230.58,-106.26 451.98,-253.86 670.62,-384.92 150.05,-90.03 608.76,-275.6 629.28,-473.11 30.62,-298.87 -640.3,-159.54 -817.61,-143.92 -319.39,28.17 -648.88,11.33 -979.9,40.73 -285.71,25.42 -950.81,-46.85 -1020.63,306.21l-20.83 101.98z"/>
  <path class="fil1" d="M4554.73 5762.6c-45.32,5.21 -84.82,-17.15 -127.08,-22.35 -96.15,-11.03 -193.22,-56.04 -289.38,-18.68 -39.41,14.65 -81.3,22.24 -123.41,22.24 -12.64,0 -25.42,-0.69 -37.96,-2.03 -10.12,-1.2 -20.43,-1.84 -30.65,-1.84 -31.38,0 -62.53,5.73 -91.85,16.83 -21.13,8.88 -54.81,18.38 -44.71,44.4 45.62,115.75 44.4,237.02 55.13,357.66 1.84,20.82 0,67.67 36.45,70.12 24.8,1.84 37.05,-30.62 50.53,-54.2 11.72,-25.99 37.63,-42.72 66.14,-42.72 1.53,0 3.08,0.06 4.59,0.14 45.01,3.37 21.13,40.43 33.08,59.09 11.94,18.67 17.15,61.25 54.2,44.71 51.44,-28.17 58.49,0 67.98,36.75 4.28,15.93 12.56,59.71 35.22,37.36 55.43,-54.2 109.94,-99.22 191.69,-101.36 9.49,0 18.07,-27.56 26.94,-41.95 67.06,-107.79 85.74,-237.63 160.77,-342.66 16.82,-24.77 14.36,-67.64 -37.7,-61.51z"/>
  <path class="fil2" d="M8637.54 5376.16c-18.68,22.35 1.84,75.33 36.75,91.87 133.81,-28.17 275.6,-52.67 412.47,-91.87 148.21,-40.73 268.86,-204.55 251.1,-352.15 -2.75,-22.66 -3.68,-42.87 -32.76,-37.66 -159.23,30.62 -313.26,-39.5 -472.81,-21.43 -59.09,6.74 -83.6,16.23 -76.86,78.7 12.87,129.21 -37.66,237 -117.89,332.54z"/>
  <path class="fil2" d="M9396.66 5291.95c91.87,-19.91 526.69,-250.79 671.24,-350.92 -76.25,-13.47 -576.31,8.58 -645.51,43.48 -19.59,9.8 -36.45,6.12 -23.58,38.89 30.62,79.93 -13.47,153.11 -34.91,225.37 -3.98,13.78 -32.76,19.29 -12.86,41.34 15.6,16.84 28.47,5.51 45.61,1.84z"/>
  <path class="fil2" d="M6560.16 5487.92c162.67,43.25 331.35,65.52 500.03,65.52 0,0 0.71,0 0.71,0 379.09,-7.35 758.2,-7.35 1136.68,-37.97 119.12,-9.49 229.35,-4.59 325.21,-116.97 88.36,-97.01 139.1,-222.75 142.64,-353.96 1.84,-56.65 -24.5,-111.15 -95.84,-110.85 -165.97,0 -318.77,-71.96 -483.82,-83.91 -69.51,-4.9 -84.21,17.77 -67.98,65.23 27.87,81.46 0,154.95 -22.66,225.69 -41.01,123.95 -127.08,228.29 -241,292.08 -10.06,8.07 -22.57,12.46 -35.45,12.46 -10.52,0 -20.86,-2.94 -29.79,-8.46 -18.68,-15.61 2.45,-30.62 15.61,-40.73 130.6,-88.27 214.83,-230.7 229.37,-387.66 11.03,-95.24 -18.38,-194.15 -81.14,-214.36 -124.45,-39.54 -252.9,-69.56 -382.23,-88.58 -30.62,-4.9 -64,-4.59 -50.83,43.18 37.05,136.88 1.84,262.12 -66.14,379.41 -61.25,107.17 -105.34,229.67 -214.36,302.23 -25.11,16.54 -61.25,57.88 -87.28,16.84 -22.05,-33.99 69.51,-66.76 75.63,-75.95 86.05,-128.92 168.42,-260.9 214.36,-410.33 40.43,-132.29 -26.03,-301.32 -125.85,-340.52 -111.77,-43.79 -224.46,-86.66 -336.84,-131.37 -16.54,-6.74 -33.08,-20.21 -48.69,-10.42 -27.56,17.15 22.96,148.21 24.19,198.73 5.88,302.65 -70.37,574.87 -294.51,810.66z"/>
  <path class="fil3" d="M1754.05 6730.26c72.88,-126.16 195.98,-220.48 234.56,-367.46 5.21,-20.21 4.9,-41.03 30.62,-43.48 34.17,145.4 59.72,293.62 75.05,442.26 11.33,89.72 -26.03,205.48 -132.9,220.18 -33.36,3.77 -58.5,32.02 -58.5,65.59 0,0.15 0,0.3 0,0.44 -2.14,33.68 0,61.25 41.03,76.25 38.88,8.29 66.68,42.63 66.68,82.37 0,2.05 -0.08,4.1 -0.23,6.13 0,75.63 53.9,103.19 120.34,82.07 51.14,-16.23 68.28,-7.65 72.27,44.71 4.59,61.25 52.97,87.58 96.45,57.27 167.81,-116.97 347.56,-217.41 420.75,-437.29 41.64,-124.94 71.65,-253.24 115.13,-376.95 79.93,-226.6 100.13,-461.78 106.26,-699.09 3.07,-122.48 194.76,-96.15 228.13,-103.8 145.14,-33.08 291.52,-8.26 436.97,-15.93 30.62,-1.53 61.25,-4.59 73.49,30.62 37.05,114.83 95.24,218.02 77.17,353.38 -35.83,265.49 -61.25,525.48 -329.8,673.68 -19.29,10.72 -54.51,30.62 -39.2,61.25 12.72,33.64 43.29,57.32 79.04,61.24 23.27,0 46.85,0 70.43,0 17.15,0 36.75,0 37.97,24.19 4.9,103.19 64.3,85.44 132.9,65.84 30.62,-8.88 73.19,-37.36 95.24,25.11 25.73,73.19 88.19,86.05 143.62,33.08 219.61,-213.43 394.19,-469.6 512.42,-752.15 65.23,-149.74 112.69,-308.37 206.39,-444.94 34.91,-51.14 61.25,-107.79 129.22,-127.69 68.67,-15.95 139.1,-24.25 209.76,-24.25 16.49,0 33.09,0.56 49.47,1.34 1.89,-0.21 3.78,-0.31 5.68,-0.31 21.97,0 41.56,13.89 48.83,34.61 41.64,104.12 107.17,195.68 144.53,302.85 54.51,156.17 65.53,320.91 107.17,478.62 25.42,96.45 -8.58,156.79 -78.7,207.01 -53.59,38.59 -113.61,67.98 -167.81,105.96 -38.89,27.26 -58.79,61.25 -14.7,105.64 61.25,61.25 165.66,89.72 143.32,209.46 4.12,20.25 21.94,34.81 42.61,34.81 6.45,0 12.81,-1.44 18.63,-4.19 22.66,-10.42 52.67,-3.98 76.25,-13.47 50.22,-20.21 85.74,-27.87 104.12,42.26 8.58,33.08 44.4,47.78 91.87,38.89 122.48,-23.89 176.38,-101.05 214.36,-214.36 64.62,-192.31 102.28,-393.19 185.87,-580.29 47.46,-106.57 117.29,-204.86 132.9,-325.51 10.42,-79.61 142.7,-474.63 164.75,-602.94 9.19,-53.28 34.61,-51.75 72.88,-30.62 47.94,30.61 101.14,52.44 156.79,64.31 194.15,22.05 384.61,77.47 581.82,68.9 237.32,-10.42 474.95,-16.23 712.26,-27.87 205.48,-10.1 411.56,-4.9 615.2,-48.38 55.13,-11.63 168.12,-61.25 136.88,87.89 -2.75,13.47 12.86,30.62 21.75,46.24 22.66,39.81 57.57,11.94 85.74,11.63 28.17,-0.31 42.26,-23.27 48.08,-51.44 7.05,-34.61 -16.84,-43.79 -39.81,-57.57 -22.97,-13.77 -56.95,-12.24 -64.62,-51.44 146.37,-26.33 291.52,-45.01 432.99,-79.61 153.11,-37.05 306.21,-73.49 448.61,-137.49 200.57,-91.87 398.09,-186.8 596.52,-286.01 107.17,-54.2 191.38,-130.45 282.95,-201.18 15.86,-12.79 28.64,-29.05 37.36,-47.47 12.24,-24.19 17.45,-39.81 -4.9,-61.25 -8.88,-11.56 -22.63,-18.34 -37.2,-18.34 -8.71,0 -17.27,2.44 -24.66,7.03 -228.74,87.28 -470.97,109.94 -711.35,124.32 -187.1,11.03 -376.34,8.88 -564.98,7.96 -264.27,0 -520.57,-54.51 -774.74,-102.89 -168.42,-30.62 -336.84,-63.69 -503.43,-109.94 -194.76,-54.51 -396.56,-83.3 -585.19,-161.38 -198.63,-80.15 -390.23,-180.5 -569.13,-298.32 -84,-58.08 -163.28,-124.49 -235.81,-196.6 -91.87,-89.72 -261.82,-432.69 -294.88,-486.58 -39.2,-63.69 -75.02,-129.83 -118.81,-190.47 -91.87,-125.55 -167.51,-262.73 -300.71,-353.99 -107.79,-73.49 -677.36,-386.76 -873.65,-417.07 -183.73,-28.78 -367.46,-70.43 -553.65,-89.42 -234.88,-23.89 -467.6,-47.78 -704.3,-13.17 -17.15,2.45 -44.4,-40.11 -26.03,-55.43 102.28,-85.12 208.23,-165.97 306.21,-255.7 86.36,-71.66 163.58,-154.91 228.72,-246.44 40.73,-63.08 22.96,-94.93 -51.44,-94.63 -103.91,1.44 -207.91,13.3 -309.54,34.65l-352.46 69.82c12.86,-21.75 15.93,-34.91 24.19,-39.81 128,-77.17 251.71,-163.21 386.14,-226.3 129.22,-61.25 248.65,-139.64 380.93,-194.45 207.92,-86.05 340.21,-266.41 500.98,-410.94 25.44,-22.88 40.06,-55.6 40.06,-89.89 0,-16.15 -3.25,-32.14 -9.53,-47 -16.54,-41.64 -393.49,-13.78 -522.41,-17.77 -0.2,0 -0.59,0 -0.59,0 -173.91,0 -348.6,13.96 -520.11,41.48 -116.67,15.31 -233.34,7.05 -349.1,18.07 -231.81,21.75 -464.23,30.62 -696.65,33.08 -40.73,0 -68.6,0 -47.16,-57.57 14.77,-35.97 22.31,-74.64 22.31,-113.65 0,-59.11 -17.33,-117 -49.74,-166.37 -59.41,-93.4 -222.01,-179.14 -320.91,-57.88 -72.67,84.35 -112.7,192.13 -112.7,303.55 0,27.04 2.38,54.18 7.04,80.75 8.88,56.95 -4.28,83.91 -64.92,82.37 -80.84,-2.14 -321.53,25.11 -333.78,-16.23 -26.94,-91.87 -84.52,-163.52 -139.33,-236.7 -119.73,-160.46 -244.98,-156.79 -356.44,2.14 -127.39,181.89 -65.53,405.44 51.44,522.41 91.87,91.87 90.33,91.87 -7.05,190.47 -6.96,9.4 -12.75,19.72 -17.11,30.61 -71.41,119.65 -135.09,245.57 -189.01,374.38 -80.23,205.78 -165.05,409.42 -225.99,621.93 -68.28,237.32 -79,484.14 -101.66,727.27 -30.62,322.45 18.68,643.07 91.87,958.16 37.36,164.44 112.69,311.42 180.06,462.7 52.36,117.29 93.4,239.46 146.07,356.44 89.42,192.75 135.85,403.12 135.85,615.64 0,144.83 -21.61,289.13 -63.93,427.54 -95.24,321.84 -198.13,643.07 -426.26,903.96 -11.61,12.43 -18.15,28.97 -18.15,46.13 0,18.52 7.6,36.25 21.01,49 26.94,26.03 56.34,14.09 85.74,-7.96 39.2,-35.25 88.49,-57.54 140.87,-63.68 0,18.68 0,36.13 3.98,52.97 14.4,82.07 47.16,100.75 122.48,66.76 48.99,-22.35 48.08,6.74 55.73,42.26 17.45,79.93 82.68,104.12 137.49,51.44 163.19,-156.48 338.96,-300.39 454.4,-500.35zm2837.42 -906.11c-75.02,104.73 -93.7,234.88 -160.77,342.66 -8.88,14.7 -17.45,41.64 -26.94,41.95 -81.76,2.45 -136.57,47.16 -191.69,101.36 -22.66,22.35 -30.62,-21.43 -35.22,-37.36 -9.19,-35.22 -16.54,-64.62 -67.98,-36.75 -37.05,16.54 -40.73,-22.66 -54.2,-44.71 -13.47,-22.05 11.94,-55.73 -33.08,-59.09 -1.49,-0.12 -3.04,-0.17 -4.57,-0.17 -28.52,0 -54.42,16.72 -66.14,42.71 -13.47,23.58 -26.03,55.73 -50.53,54.2 -35.83,-2.45 -34.61,-49.3 -36.45,-70.12 -10.72,-120.34 -9.49,-241.91 -55.13,-357.66 -10.1,-25.73 23.58,-35.22 44.71,-44.4 29.33,-11.09 60.48,-16.82 91.86,-16.82 10.22,0 20.53,0.64 30.65,1.84 12.53,1.33 25.31,2.03 37.95,2.03 42.1,0 84,-7.59 123.43,-22.26 96.15,-37.36 193.22,7.65 289.38,18.68 42.57,4.9 82.07,27.56 127.08,22.35 52.96,-6.11 55.41,36.76 37.65,61.56zm4772.73 -575.38c21.43,-73.79 65.53,-145.14 34.91,-225.37 -12.56,-32.46 4.28,-28.78 23.58,-38.89 69.21,-34.91 569.26,-56.95 645.51,-43.48 -144.53,99.82 -579.68,331.02 -671.24,350.92 -17.15,3.68 -30.62,15.31 -45.62,-1.84 -19.9,-22.05 8.89,-27.56 12.87,-41.34zm-531.6 -283.87c159.54,-18.07 313.88,51.14 472.81,21.43 29.1,-5.51 30.62,14.7 32.76,37.66 17.77,147.6 -102.59,311.42 -251.1,352.15 -138.11,37.97 -278.36,61.25 -412.47,91.87 -34.91,-15.93 -55.43,-68.9 -36.75,-91.87 80.23,-95.84 130.76,-203.33 117.29,-331.63 -6.75,-62.46 16.21,-72.27 77.46,-79.61zm-2001.45 -487.49c15.61,-9.8 30.62,3.68 48.69,10.42 111.47,45.01 223.85,87.58 336.84,131.37 100.13,39.2 166.28,208.53 125.85,340.52 -45.62,149.44 -127.69,281.41 -214.36,410.33 -6.12,8.88 -97.68,41.64 -75.63,75.95 26.94,41.03 61.25,0 87.28,-16.84 109.94,-72.58 153.11,-195.06 214.36,-302.23 67.98,-117.29 103.19,-242.22 66.14,-379.41 -13.17,-47.78 21.75,-48.38 50.83,-43.18 129.28,19.42 257.42,49.45 381.7,89.29 61.25,21.43 91.87,120.34 81.14,214.36 -14.68,157.07 -98.91,299.49 -229.5,387.77 -13.17,9.19 -34.29,25.42 -15.61,40.73 8.93,5.52 19.27,8.46 29.79,8.46 12.88,0 25.39,-4.4 35.44,-12.45 113.93,-63.81 200,-168.14 241,-292.14 23.89,-70.74 50.53,-144.53 22.66,-225.69 -16.23,-47.78 -1.53,-70.12 67.98,-65.23 164.75,11.94 317.55,84.82 483.82,83.91 71.04,0 97.68,54.2 95.84,110.85 -3.53,131.26 -54.27,256.99 -142.7,353.99 -96.15,112.38 -206.08,107.17 -325.21,116.97 -378.49,30.62 -757.59,30.62 -1136.68,37.97 0.07,0 -0.64,0 -0.64,0 -168.67,0 -337.36,-22.27 -500.11,-65.62 224.16,-235.79 300.4,-508.01 294.27,-811.17 -0.83,-49.8 -51.36,-180.86 -23.8,-198.01l0.6 -0.91zm-388.9 -275.6c72.58,51.75 144.53,104.12 220.48,150.35 12.72,6.72 22.86,17.51 28.78,30.61 61.25,203.02 100.75,407.28 56.34,621.32 -23.89,115.13 -91.87,208.85 -134.13,314.79 -140.55,272.54 -293.67,65.53 -288.15,22.35 20.4,-143.29 33.31,-288.16 38.27,-432.54 2.75,-115.13 -1.84,-229.35 -10.42,-344.5 -13.41,-157.4 -38.39,-314.77 -73.37,-468.8 84.41,8.74 113.49,73.35 161.57,107.03l0.61 -0.61zm-5542.55 79.61c-71.65,-185.26 -83.6,-386.76 -110.24,-583.96 -12.2,-76.04 -18.66,-153.26 -18.66,-230.3 0,-51.19 2.79,-102.55 8.21,-153.39 43.48,-315.4 41.95,-636.32 160.77,-942.85 74.41,-191.99 148.51,-384.3 231.19,-572.94 55.5,-113.76 126.28,-220.47 209.52,-315.79 37.36,-46.55 94.01,-21.43 141.16,-21.13 74.11,0 131.67,-16.54 178.52,-81.14 16.54,-22.66 30.62,-40.73 26.03,-65.23 -22.05,-101.98 44.1,-124.64 120.65,-136.57 76.56,-11.93 161.68,-22.05 242.83,-32.76 2.75,0 7.05,-3.07 8.26,-1.84 106.57,114.83 195.06,-26.03 294.88,-30.62 175.47,-8.58 353.38,-25.73 530.06,-38.89 344.8,-25.73 691.74,-16.23 1033.49,-86.66 48.37,-9.5 97.76,-14.32 147.16,-14.32 53.38,0 106.86,5.74 159.03,16.86 53.9,11.63 97.38,82.98 139.02,132.9 12.24,14.4 -19.59,30.62 -32.76,46.85 -122.48,138.72 -287.54,220.18 -448.3,303.46 -204.55,105.96 -406.96,214.36 -603.87,334.7 -98.91,61.25 -209.15,104.42 -313.26,158.62 -28.48,14.7 -70.43,15.31 -57.57,58.49 9.54,30.95 38.17,52.12 70.58,52.12 7.22,0 14.41,-1.06 21.32,-3.15 157.7,-45.62 321.53,-57.27 481.07,-94.31 106.57,-24.8 217.11,-54.81 331.33,-47.46 18.38,0 33.68,-3.07 41.34,14.4 7.66,17.46 -7.35,26.03 -18.07,36.13 -211.29,194.15 -433.61,376.04 -632.65,581.82 -94.82,97.03 -185.98,201.21 -269.69,308.17 -25.67,29.74 -56.88,54.45 -91.67,72.76 -37.05,24.19 -64,61.25 -28.78,101.98 35.22,40.73 59.41,0 86.05,-21.13 101.66,-82.37 171.79,-192.61 256,-290.3 48.78,-63.39 119.07,-106.95 197.53,-122.47 100.44,-13.47 190.17,-67.98 294.27,-63.69 135.35,5.21 271.62,-5.21 406.05,6.43 157.7,13.47 313.88,43.18 470.65,66.44 235.79,35.52 465.76,75.63 669.7,223.23 118.5,86.05 262.43,138.72 387.06,221.7 155.86,103.5 231.81,270.39 336.84,414.62 136.57,190.17 183.73,417.99 236.4,638.77 39.3,150.85 62.69,305.98 69.42,461.66 3.37,116.06 13.17,232.72 13.17,349.4 0,214.36 -46.85,423.5 -93.7,632.04 -28.71,134.9 -76.61,265.68 -141.36,387.22 -8.77,16.94 -13.36,35.81 -13.36,54.93 0,10.16 1.31,20.31 3.84,30.13 21.43,100.13 -30.62,183.73 -63.39,267.94 -8.26,21.13 -30.62,54.2 -69.21,26.64 -5.91,-4.39 -13.1,-6.77 -20.47,-6.77 -10.71,0 -20.81,5.01 -27.29,13.52 -41.03,52.97 -78.7,49.6 -120.04,0 -19.59,-24.19 -35.52,-1.53 -50.83,11.03 -15.31,12.56 -28.48,19.29 -37.97,-7.65 -34.91,-97.07 -72.88,-44.71 -104.73,0 -15.9,27.72 -41.05,48.96 -71.03,60.01 -98.29,-280.19 -183.73,-560.68 -342.35,-809.33 -57.86,-91.08 -128.58,-173.88 -209.73,-245.04 -133.81,-114.78 -235.52,-262.7 -294.88,-428.62 -48.08,-134.43 -115.45,-265.19 -109.32,-414.62 0,-22.96 -9.49,-44.4 -30.62,-44.71 -27.52,1.01 -50.16,21.96 -53.31,49.28 -3.91,20.14 -5.94,40.7 -5.94,61.24 0,20.53 2.03,41.1 5.94,61.24 71.65,275.6 169.65,536.8 367.46,748.71 51.44,55.13 114.52,99.22 167.51,153.11 40.43,41.03 55.13,73.49 -28.48,91.87 -66.46,12.33 -134.29,18.66 -201.98,18.66 -48.99,0 -98.11,-3.37 -146.57,-9.83 -87.74,-9.19 -177.11,-14.3 -265.58,-14.3 -88.47,0 -177.84,5.12 -265.71,14.44 -86.66,8.58 -174.85,-15.93 -265.8,2.75 -162.91,33.38 -328.88,14.7 -493.63,9.49 -56.65,-1.84 -105.34,40.73 -166.58,30.62 -36.7,-5.09 -73.2,-12.96 -108.69,-23.64 -34.83,-6.57 -60.1,-37.06 -60.1,-72.54 0,-4.73 0.46,-9.49 1.37,-14.13 3.68,-100.44 13.78,-203.94 -61.25,-289.69 -42.26,16.84 -49.3,52.36 -43.79,91.87 8.02,79.06 12.49,159.16 12.49,238.69 0,68.1 -3.34,136.19 -9.21,204.01 -10.1,176.68 -23.27,352.76 -42.87,526.39 -30.62,11.94 -30.62,-13.17 -38.59,-26.33 -30.62,-56.65 -65.23,-47.46 -101.05,-7.65 -15.31,17.15 -22.96,42.26 -40.43,55.43 -27.87,21.13 -61.25,67.06 -83.6,-12.24 -17.45,-59.71 -56.34,-72.58 -105.03,-15.93 -37.97,44.71 -81.14,98.61 -129.83,0 -20.82,-41.95 -57.57,-28.78 -79.93,12.24 -13.47,25.11 -28.17,59.41 -61.25,47.46 -25.73,-8.88 -36.45,-37.66 -45.32,-68.9 -55.43,-197.2 -76.56,-408.19 -209.76,-576.61 -88.8,-112.38 -181.59,-221.39 -273.15,-331.33 -8.17,-8.48 -18.85,-14.36 -30.52,-16.76 -131.06,-33.08 -183.73,-147.6 -262.43,-239.77 -219.26,-256.61 -333.48,-567.12 -451.98,-874.56l0 -0.61zm606.92 1874.37c-29.1,-95.24 -50.83,-96.77 -131.99,-32.76 -18.68,14.7 -37.66,37.66 -61.25,22.35 -23.59,-15.31 5.82,-44.1 1.84,-61.25 -35.22,-163.52 52.36,-322.75 8.26,-489.95 -23.89,-90.03 7.96,-189.55 -11.94,-286.32 48.69,88.49 338.68,277.43 361.03,304.07 95.84,115.13 201.18,222.62 259.68,365.32 36.45,89.42 18.98,232.42 -47.78,301.32 -9.49,9.8 -18.07,25.73 -34.91,18.07 -11.83,-6.17 -19.27,-18.44 -19.27,-31.79 0,-1.56 0.1,-3.11 0.3,-4.66 0.54,-8.78 0.84,-17.66 0.84,-26.48 0,-8.82 -0.3,-17.7 -0.82,-26.47 -6.43,-68.6 -48.69,-89.11 -104.12,-50.53 -23.82,20.76 -49.65,39.44 -76.9,55.41 -63.99,30.02 -115.74,33.39 -142.99,-56.03l0 -0.3z"/>
  <path class="fil3" d="M4300.57 674.48c24.19,-33.38 54.2,-50.22 71.04,-88.49 52.67,-119.12 102.28,-241.91 204.55,-330.72 23.27,-20.21 33.38,-42.26 10.72,-67.37 -22.66,-25.11 -44.71,-18.68 -67.98,2.75 -120.96,112.38 -181.89,263.35 -261.21,402.37 -26.63,43.78 18.69,50.52 42.88,81.46z"/>
  <path class="fil3" d="M4495.32 618.74c30.62,33.99 62.78,0 82.98,-15.93 67.23,-54.1 139.74,-101.84 216.13,-141.81 14.7,-7.65 35.22,-10.1 30.62,-46.85 -22.66,-48.38 -68.28,-41.03 -109.63,-14.7 -64.51,42.2 -128,88.11 -188.07,136.58 -25.91,19.32 -66.33,43.2 -32.04,82.71z"/>
  <path class="fil3" d="M8142.39 5695.23c-48.99,7.96 -119.73,10.1 -122.48,81.76 -2.14,57.88 47.46,61.25 90.03,55.13 54.81,3.37 112.38,3.68 113.31,-63.69 -0.71,-40.77 -33.96,-73.46 -74.72,-73.46 -2.05,0 -4.11,0.09 -6.13,0.25l0 0.01z"/>
  <path class="fil3" d="M4746.74 611.7c14.7,20.52 30.62,7.96 45.01,0 54.27,-29.25 110.91,-55.31 168.43,-77.21 23.27,-7.35 68.28,-16.23 53.9,-53.59 -7.96,-20.82 -45.32,-33.99 -77.77,-30.62 -69.48,19.42 -131.7,59.13 -178.55,113.93 -12.24,15.64 -25.72,27.58 -11.02,47.49z"/>
  <path class="fil3" d="M8631.42 4520.89c22.18,-26.98 48.96,-49.92 79,-67.68 17.45,-7.65 41.64,-20.21 33.68,-51.75 -7.96,-31.54 -33.99,-33.99 -61.25,-32.46 -0.05,0 -0.13,0 -0.19,0 -59.04,0 -111.94,36.61 -132.7,91.86 -3.23,7.88 -4.9,16.35 -4.9,24.88 0,20.86 9.88,40.48 26.63,52.89 20.52,19.62 41.95,-2.43 59.72,-17.74z"/>
  <path class="fil3" d="M9085.55 4704.62c58.79,0 91.87,-21.75 91.87,-75.63 0,-36.13 -20.21,-48.69 -56.34,-47.16 -53.59,1.84 -107.79,14.7 -112.99,71.35 -3.08,36.13 42.24,56.95 77.46,51.44z"/>
  <path class="fil3" d="M9291.94 5647.76c-9.49,-45.94 -64,-46.55 -104.73,-61.25 -7.65,40.43 -64.92,-16.54 -59.71,26.64 5.21,43.18 26.94,97.07 91.87,95.24 40.4,-0.91 77.76,-41.03 72.57,-60.63z"/>
  <path class="fil3" d="M8067.06 4523.33c0.16,0 0.34,0 0.5,0 43.52,0 79.6,-33.76 82.5,-77.17 -9.49,-13.47 -9.8,-53.9 -37.36,-39.2 -36.13,19.29 -98.61,-7.65 -108.4,48.99 -0.09,1.42 -0.15,2.87 -0.15,4.29 0,34.77 28.15,63 62.91,63.08l0 0.01z"/>
  <path class="fil3" d="M7699.59 4365.33c7.96,5.82 33.38,-11.03 22.05,-33.38 -20.82,-40.73 -4.28,-100.75 -49.92,-122.48 -55.73,4.28 -61.25,30.62 -61.25,67.67 -0.9,60.63 55.13,64.3 89.12,88.19z"/>
  <path class="fil3" d="M9776.38 5604.28c-20.82,-55.73 -68.6,-53.9 -127.08,-49.3 28.48,49.6 16.84,117.29 87.28,112.38 24.27,-1.01 43.45,-20.98 43.45,-45.29 0,-6.11 -1.25,-12.18 -3.65,-17.8l0 0.01z"/>
  <path class="fil3" d="M9576.11 4668.49c45.01,0 79,-2.75 73.79,-41.95 -3.98,-30.62 -27.87,-48.38 -67.67,-48.08 -39.8,0.3 -65.84,20.82 -64,49.92 2.45,33.98 41.04,39.5 57.88,40.11z"/>
  <path class="fil3" d="M7673.57 5900.71c34.91,-1.53 35.22,-38.59 42.26,-61.25 0,-28.48 -1.84,-55.73 -33.38,-49.92 -24.19,4.28 -54.81,14.4 -52.97,48.08 1.84,28.8 8.89,64.62 44.1,63.09z"/>
  <path class="fil3" d="M2537.05 1443.38c43.45,-14.47 89.13,-21.96 134.96,-21.96 11.64,0 23.44,0.52 35.02,1.46 3.78,0.97 7.68,1.48 11.61,1.48 20.05,0 37.78,-13.01 43.81,-32.12 7.05,-25.42 -2.75,-42.87 -24.19,-65.23 -58.79,-61.25 -130.15,-61.25 -211.9,-61.25 -30.62,12.24 -86.66,-27.26 -109.01,22.66 -7.14,13.75 -10.9,29.05 -10.9,44.55 0,22.82 8.1,44.93 22.85,62.32 28.76,29.4 52.65,64.93 107.76,48.08z"/>
  <path class="fil3" d="M5737.34 3612.02c7.96,15.93 24.19,38.59 48.08,30.62 17.75,-7.22 29.36,-24.5 29.36,-43.67 0,-3.96 -0.51,-7.93 -1.49,-11.76 0,-86.35 -122.48,-238.24 -204.86,-255.7 -4.56,-1.53 -9.36,-2.31 -14.19,-2.31 -15.87,0 -30.54,8.48 -38.47,22.23 -4.69,6.57 -7.22,14.47 -7.22,22.56 0,12.74 6.25,24.67 16.71,31.94 71.69,55.28 130.45,125.71 172.07,206.08l0.02 0z"/>
  <path class="fil3" d="M5120.01 3006.63c86.35,36.13 157.7,94.31 234.56,144.84 33.38,22.05 52.67,7.35 53.28,-35.52 -0.03,-7.52 -0.97,-15.05 -2.74,-22.36 -14.09,-43.18 -205.17,-171.49 -252.94,-170.26 -16.23,0 -38.59,-5.21 -41.64,18.98 -3.06,24.19 -13.8,54.82 9.48,64.31z"/>
  <path class="fil3" d="M3740.19 2841.58c20.21,-11.94 51.14,-6.43 95.54,-10.42 27.56,-14.09 64.92,26.03 109.32,21.75 26.03,-2.45 45.62,-9.49 52.06,-36.45 1.27,-3.7 1.92,-7.63 1.92,-11.55 0,-14.25 -8.45,-27.15 -21.52,-32.85 -84.21,-25.46 -172.05,-38.59 -260.11,-38.59 -0.54,0 -1.2,0 -1.75,0 -28.62,1.67 -51.03,25.4 -51.03,54.12 0,8.19 1.86,16.3 5.44,23.67 12.23,30.92 26.93,56.04 70.11,30.31z"/>
  <path class="fil3" d="M4571.88 2844.95c76.25,0 116.06,71.04 183.73,88.19 30.62,7.65 52.97,10.42 66.14,-18.07 5.32,-8.39 8.17,-18.15 8.17,-28.1 0,-16.92 -8.18,-32.81 -21.96,-42.63 -57.27,-37.36 -114.22,-76.56 -192.31,-80.54 -17.15,15.61 -56.34,-21.43 -68.28,22.35 -7.35,23.27 12.56,58.79 24.5,58.79z"/>
  <path class="fil3" d="M4802.76 3274.57c44.71,56.04 98.91,103.5 143.32,161.07 18.07,23.58 58.49,35.83 72.58,-8.88 19.29,-61.25 -120.96,-224.16 -167.81,-222.01 -79.01,1.53 -68.91,43.78 -48.09,69.81z"/>
  <path class="fil3" d="M4072.43 3098.8c87.05,27.04 171.06,63.86 250.13,109.05 7.84,-14.4 11.92,-30.5 11.92,-46.84 0,-14.74 -3.33,-29.33 -9.72,-42.61 -15.93,-30.62 -201.8,-111.47 -239.46,-107.48 -19.59,2.14 -35.83,6.12 -33.08,30.62 2.75,24.5 -13.78,45.32 20.21,57.27z"/>
  <path class="fil3" d="M5752.04 3913.04c-6.4,-12.46 -19.24,-20.3 -33.23,-20.3 -4,0 -7.99,0.65 -11.78,1.91 -25.73,5.82 -13.17,27.87 -18.68,47.16 5.82,82.68 91.87,118.81 120.96,189.55 6.77,21.17 26.47,35.54 48.7,35.54 0.51,0 1.02,-0.01 1.52,-0.02 27.26,-3.68 21.43,-36.75 29.1,-57.57 10.1,-28.17 -6.12,-47.16 -22.66,-66.44 -37.36,-43.78 -88.5,-75.02 -113.92,-129.83z"/>
  <path class="fil3" d="M4392.43 2986.42c15,-3.07 37.36,-5.82 43.48,-25.73 2.92,-6.87 4.42,-14.26 4.42,-21.72 0,-16.24 -7.09,-31.69 -19.41,-42.27 -37.66,-30.62 -76.56,-61.25 -111.15,-95.24 -21.43,-20.82 -36.13,-15.61 -61.25,-4.9 -30.62,14.09 -25.73,39.81 -19.91,58.18 26.02,75.95 90.02,107.79 163.81,131.67z"/>
  <path class="fil3" d="M5222.9 3346.84c-34.61,3.98 -61.25,30.62 -36.75,63.08 41.01,57.37 88.09,110.74 139.95,158.57 14.4,13.78 58.18,26.33 64,-23.89 5.82,-50.22 -115.45,-194.69 -167.2,-197.76z"/>
  <path class="fil3" d="M3630.25 3291.11c38.85,1.49 77.54,7.81 114.85,18.65 47.78,1.84 76.25,4.59 90.03,-24.19 3.63,-5.13 5.59,-11.28 5.59,-17.6 0,-11.34 -6.28,-21.77 -16.31,-27.07 -43.15,-34 -96.62,-52.54 -151.59,-52.54 -5.08,0 -10.25,0.19 -15.31,0.47 -32.85,2.22 -59.01,28.39 -61.24,61.25 -0.32,1.93 -0.49,3.88 -0.49,5.83 0,19.15 15.32,34.81 34.48,35.21l-0.01 0z"/>
  <path class="fil3" d="M3429.07 2906.81c33.08,-21.43 58.49,-34.29 18.68,-66.44 -55.43,-44.71 -120.34,-35.83 -183.73,-18.68 -63.39,17.15 -42.26,65.23 -37.36,128.31 63.39,-81.47 138.72,-1.54 202.41,-43.18z"/>
  <path class="fil3" d="M3017.82 3184.24c39.81,-27.26 86.05,-27.56 129.53,-39.81 22.9,-7.41 38.81,-28.31 39.81,-52.37 0,-12.56 -2.14,-24.8 -15.93,-26.33 -61.25,-6.43 -122.48,-7.65 -173.01,28.48 -14.03,9.99 -22.37,26.17 -22.37,43.4 0,9.5 2.55,18.84 7.36,27.04 7.96,12.55 22.05,28.17 34.61,19.59z"/>
  <path class="fil3" d="M6087.97 4190.78c26.33,3.37 40.73,-17.45 42.26,-48.38 -20.82,-41.03 -30.62,-97.68 -91.87,-106.87 -3.31,-0.88 -6.75,-1.32 -10.18,-1.32 -22.49,0 -40.73,18.24 -40.73,40.73 0,4.83 0.87,9.63 2.55,14.15 11.93,52.07 40.42,94.94 97.98,101.69z"/>
</svg>
