<?xml version="1.0" encoding="UTF-8"?>
<!DOCTYPE svg PUBLIC "-//W3C//DTD SVG 1.1//EN" "http://www.w3.org/Graphics/SVG/1.1/DTD/svg11.dtd">
<svg xmlns="http://www.w3.org/2000/svg" xml:space="preserve" width="26.0584mm" height="26.8908mm" version="1.1" style="shape-rendering:geometricPrecision; text-rendering:geometricPrecision; image-rendering:optimizeQuality; fill-rule:evenodd; clip-rule:evenodd"
viewBox="0 0 2605.84 2689.08"
 xmlns:xlink="http://www.w3.org/1999/xlink">
 <defs>
  <style type="text/css">
   <![CDATA[
    .str0 {stroke:black;stroke-width:105.83;stroke-linecap:round;stroke-linejoin:round;stroke-miterlimit:22.9256}
    .fil0 {fill:none}
    .fil1 {fill:black}
   ]]>
  </style>
 </defs>
  <path class="fil0 str0" d="M1699.96 81.33c31.19,-17.41 66.36,-26.6 102.08,-26.6 35.73,0 70.89,9.19 102.07,26.61l526.07 295.58c75.82,42.89 122.74,123.31 122.74,210.43 0,87.11 -46.92,167.54 -122.74,210.42l-1525.56 859.22c-31.28,17.81 -66.69,27.22 -102.7,27.22 -36.01,0 -71.41,-9.41 -102.69,-27.23l-523.57 -295.58c-75.81,-42.9 -122.74,-123.31 -122.74,-210.42 0,-87.12 46.93,-167.54 122.74,-210.43l1524.3 -859.22z"/>
  <path class="fil0 str0" d="M2430.18 1361.4c75.82,-42.9 122.74,-123.31 122.74,-210.42 0,-87.12 -46.92,-167.54 -122.74,-210.43l-1524.3 -860.48c-31.06,-17.77 -66.27,-27.15 -102.08,-27.15 -35.81,0 -71.02,9.38 -102.09,27.16l-526.05 296.84c-75.81,42.89 -122.74,123.31 -122.74,210.43 0,87.11 46.93,167.54 122.74,210.42l1525.56 859.22c31.03,17.79 66.28,27.22 102.07,27.22 35.8,0 71.05,-9.43 102.07,-27.24l524.82 -295.57z"/>
   <path class="fil1" d="M2304.93 2059.53c0,0.06 0,0.19 0,0.25l0 -0.25zm-2004.02 -431.09l0.01 431.09c0,0.06 0,0.19 0,0.25 0,96.27 53.65,184.56 139.03,228.95l751.51 385.77c8.95,4.65 18.17,8.72 27.59,12.2 2.35,1.36 40.54,12.17 39.49,-27.06l0 -971.47c0.21,-10.37 -16.74,-78.02 -94.36,-35.35l-259.56 146.18c-31.28,17.81 -66.69,27.23 -102.7,27.23 -36.01,0 -71.41,-9.42 -102.69,-27.24l-350.38 -197.81c0,0 -47.94,-29.57 -47.94,27.26z"/>
   <path class="fil1" d="M300.91 2059.53c0,0.06 0,0.19 0,0.25l0 -0.25zm2004.02 -431.09l-0.01 431.09c0,0.06 0,0.19 0,0.25 0,96.27 -53.65,184.56 -139.03,228.95l-751.51 385.77c-8.95,4.65 -18.17,8.72 -27.59,12.2 -2.35,1.36 -40.54,12.17 -39.49,-27.06l0 -971.47c-0.21,-10.37 16.74,-78.02 94.36,-35.35l259.56 146.18c31.28,17.81 66.69,27.23 102.7,27.23 36.01,0 71.41,-9.42 102.69,-27.24l350.38 -197.81c0,0 47.94,-29.57 47.94,27.26z"/>
</svg>
