<?xml version="1.0" encoding="UTF-8"?>
<!DOCTYPE svg PUBLIC "-//W3C//DTD SVG 1.1//EN" "http://www.w3.org/Graphics/SVG/1.1/DTD/svg11.dtd">
<svg xmlns="http://www.w3.org/2000/svg" xml:space="preserve" width="25.5291mm" height="25.8041mm" version="1.1" style="shape-rendering:geometricPrecision; text-rendering:geometricPrecision; image-rendering:optimizeQuality; fill-rule:evenodd; clip-rule:evenodd"
viewBox="0 0 338.5 342.14"
 xmlns:xlink="http://www.w3.org/1999/xlink">
 <defs>
  <style type="text/css">
   <![CDATA[
    .str0 {stroke:black;stroke-width:14.03;stroke-miterlimit:22.9256}
    .fil1 {fill:none;fill-rule:nonzero}
    .fil0 {fill:black;fill-rule:nonzero}
   ]]>
  </style>
 </defs>
  <path class="fil0" d="M332.5 216.66c-4,12 -8.67,21.6 -14,28.81 -5.33,7.2 -13.74,10.8 -25.21,10.8l-117.63 0 0 10 78.42 0 0 30.01c0,11.47 -4.07,20.27 -12.2,26.41 -8.14,6.14 -17.14,10.67 -27.01,13.6 -14.94,4.27 -28.67,6.2 -41.21,5.8 -12.54,-0.4 -25.07,-2.33 -37.61,-5.8 -10.14,-3.2 -19.2,-8 -27.21,-14.4 -8,-6.4 -12,-14.94 -12,-25.61l0 -74.82c0,-10.67 3.87,-20 11.6,-28.01 7.74,-8 16.94,-12 27.61,-12l78.82 0c13.07,0 24.47,-4.87 34.21,-14.6 9.74,-9.73 14.6,-21.4 14.6,-35.01l0 -34.81 29.61 0c11.47,0 20.14,3.8 26.01,11.4 5.87,7.6 10.27,17.01 13.2,28.21 4,15.74 6,29.94 6,42.61 0,12.67 -2,25.14 -6,37.41zm-122.03 99.62c4,0 7.47,-1.47 10.4,-4.4 2.93,-2.93 4.4,-6.53 4.4,-10.8 0,-4 -1.47,-7.47 -4.4,-10.4 -2.93,-2.93 -6.4,-4.4 -10.4,-4.4 -4,0 -7.47,1.47 -10.4,4.4 -2.93,2.93 -4.4,6.4 -4.4,10.4 0,4.27 1.47,7.87 4.4,10.8 2.93,2.93 6.4,4.4 10.4,4.4z"/>
  <path class="fil1 str0" d="M91.23 91.04l0.01 -40.01c0,-11.2 2.4,-20.07 7.2,-26.61 4.8,-6.53 15.47,-11.27 32.01,-14.2 5.6,-0.8 11.6,-1.47 18,-2 6.4,-0.53 12.94,-0.93 19.6,-1.2 6.67,0 13.47,0.27 20.4,0.8 6.93,0.53 13.74,1.33 20.4,2.4 10.67,1.87 19.87,6.54 27.61,14 7.74,7.47 11.6,16.4 11.6,26.81l0 74.82c0,10.94 -3.8,20.34 -11.4,28.21 -7.6,7.87 -16.87,11.8 -27.81,11.8l-78.42 0c-13.34,0 -24.87,4.87 -34.61,14.6 -9.73,9.74 -14.6,21.14 -14.6,34.21l0 36.01 -26.81 0c-11.47,0 -20.6,-3.73 -27.41,-11.2 -6.8,-7.47 -11.67,-17.07 -14.6,-28.81 -3.74,-15.47 -5.53,-28.87 -5.4,-40.21 0.13,-11.34 1.93,-24.47 5.4,-39.41 3.2,-13.07 9.33,-23 18.4,-29.81 9.07,-6.8 19.34,-10.2 30.81,-10.2l108.03 0"/>
  <path class="fil0" d="M134.45 31.42c-4,0 -7.4,1.47 -10.2,4.4 -2.8,2.93 -4.2,6.4 -4.2,10.4 0,4.27 1.4,7.8 4.2,10.6 2.8,2.8 6.2,4.2 10.2,4.2 4.27,0 7.8,-1.4 10.6,-4.2 2.8,-2.8 4.2,-6.34 4.2,-10.6 0,-4 -1.4,-7.47 -4.2,-10.4 -2.8,-2.93 -6.34,-4.4 -10.6,-4.4z"/>
</svg>
